<svg viewBox="0 0 601 602" xmlns="http://www.w3.org/2000/svg" xml:space="preserve" style="fill-rule:evenodd;clip-rule:evenodd;stroke-miterlimit:10"><path d="M0 493.132c-65.86 0-127.778-25.647-174.349-72.218-46.569-46.57-72.217-108.488-72.217-174.348 0-65.86 25.648-127.778 72.217-174.349C-127.778 25.648-65.86 0 0 0c65.86 0 127.778 25.648 174.349 72.217 46.569 46.571 72.216 108.489 72.216 174.349 0 65.86-25.647 127.779-72.216 174.348C127.778 467.485 65.86 493.132 0 493.132" style="fill:#fff;fill-rule:nonzero" transform="translate(300.5 45.934) scale(1.03245)"/><path d="M0 493.132c-65.86 0-127.778-25.647-174.349-72.218-46.569-46.57-72.217-108.488-72.217-174.348 0-65.86 25.648-127.778 72.217-174.349C-127.778 25.648-65.86 0 0 0c65.86 0 127.778 25.648 174.349 72.217 46.569 46.571 72.216 108.489 72.216 174.349 0 65.86-25.647 127.779-72.216 174.348C127.778 467.485 65.86 493.132 0 493.132" style="fill:#6f73d2;fill-rule:nonzero" transform="translate(300.5 53.934)"/><path d="M0-493.382c-136.244 0-246.691 110.448-246.691 246.691C-246.691-110.447-136.244 0 0 0s246.69-110.447 246.69-246.691c0-136.243-110.446-246.691-246.69-246.691m0 .25c33.27 0 65.544 6.516 95.926 19.367 29.345 12.412 55.701 30.181 78.334 52.814 22.633 22.633 40.402 48.988 52.814 78.334 12.851 30.382 19.366 62.656 19.366 95.926 0 33.269-6.515 65.543-19.366 95.926-12.412 29.346-30.181 55.701-52.814 78.334-22.633 22.633-48.989 40.403-78.334 52.815C65.544-6.766 33.27-.25 0-.25c-33.269 0-65.543-6.516-95.926-19.366-29.345-12.412-55.701-30.182-78.334-52.815-22.633-22.633-40.402-48.988-52.814-78.334-12.851-30.383-19.367-62.657-19.367-95.926 0-33.27 6.516-65.544 19.367-95.926 12.412-29.346 30.181-55.701 52.814-78.334 22.633-22.633 48.989-40.402 78.334-52.814C-65.543-486.616-33.269-493.132 0-493.132" style="fill:#6f73d2;fill-rule:nonzero" transform="translate(302.987 547.192)"/><path d="M0 20.602a155.604 155.604 0 0 1-.065-4.487c0-45.859 20.431-86.942 52.682-114.656C15.299-72.046-9.122-28.588-9.428 20.591l-122.148-.148 91.58 98.7 91.819-98.478-51.686-.063H0Z" style="fill:#fff;fill-rule:nonzero;stroke:#fff;stroke-width:1px" transform="translate(131.74 256.976)"/><path d="M0-20.602c.043 1.491.065 2.986.065 4.487 0 45.858-20.431 86.941-52.682 114.656C-15.3 72.046 9.121 28.588 9.428-20.59l122.148.147-91.58-98.7-91.819 98.479 51.685.062H0Z" style="fill:#fff;fill-rule:nonzero;stroke:#fff;stroke-width:1px" transform="translate(469.26 348.988)"/><path d="M0 82.91-76.929 0 77.13.187 0 82.91Z" style="fill:#6f73d2" transform="translate(91.807 283.188)"/><path d="M0-82.91-76.929 0 77.13-.187 0-82.91Z" style="fill:#6f73d2" transform="translate(509.007 322.862)"/></svg>