<?xml version="1.0" encoding="UTF-8" standalone="no"?>
<!DOCTYPE svg PUBLIC "-//W3C//DTD SVG 1.1//EN" "http://www.w3.org/Graphics/SVG/1.1/DTD/svg11.dtd">
<svg width="100%" height="100%" viewBox="0 0 601 602" version="1.1" xmlns="http://www.w3.org/2000/svg" xmlns:xlink="http://www.w3.org/1999/xlink" xml:space="preserve" xmlns:serif="http://www.serif.com/" style="fill-rule:evenodd;clip-rule:evenodd;stroke-miterlimit:10;">
    <g id="Слой-1" serif:id="Слой 1" transform="matrix(1,0,0,1,0,46)">
        <g transform="matrix(1.03245,0,0,1.03245,300.501,-0.066)">
            <path d="M0,493.132C-65.86,493.132 -127.778,467.485 -174.349,420.914C-220.918,374.344 -246.566,312.426 -246.566,246.566C-246.566,180.706 -220.918,118.788 -174.349,72.217C-127.778,25.648 -65.86,0 0,0C65.86,0 127.778,25.648 174.349,72.217C220.918,118.788 246.565,180.706 246.565,246.566C246.565,312.426 220.918,374.345 174.349,420.914C127.778,467.485 65.86,493.132 0,493.132" style="fill:white;fill-rule:nonzero;"/>
        </g>
        <g transform="matrix(1,0,0,1,300.501,7.934)">
            <path d="M0,493.132C-65.86,493.132 -127.778,467.485 -174.349,420.914C-220.918,374.344 -246.566,312.426 -246.566,246.566C-246.566,180.706 -220.918,118.788 -174.349,72.217C-127.778,25.648 -65.86,0 0,0C65.86,0 127.778,25.648 174.349,72.217C220.918,118.788 246.565,180.706 246.565,246.566C246.565,312.426 220.918,374.345 174.349,420.914C127.778,467.485 65.86,493.132 0,493.132" style="fill:rgb(0,155,114);fill-rule:nonzero;"/>
        </g>
        <g transform="matrix(1,0,0,1,376.043,253.114)">
            <path d="M0,2.772L-151.087,94.452L-149.369,-91.68L0,2.772Z" style="fill:white;"/>
        </g>
        <g transform="matrix(1,0,0,1,131.904,210.721)">
            <path d="M0,20.602C-0.043,19.111 -0.065,17.616 -0.065,16.115C-0.065,-29.744 20.366,-70.827 52.617,-98.541C15.299,-72.046 -9.122,-28.588 -9.428,20.591L-131.576,20.443L-39.996,119.143L51.823,20.665L0.137,20.602L0,20.602Z" style="fill:white;fill-rule:nonzero;stroke:white;stroke-width:1px;"/>
        </g>
        <g transform="matrix(1,0,0,1,469.424,302.733)">
            <path d="M0,-20.602C0.043,-19.111 0.065,-17.616 0.065,-16.115C0.065,29.743 -20.366,70.826 -52.617,98.541C-15.3,72.046 9.121,28.588 9.428,-20.59L131.576,-20.443L39.996,-119.143L-51.823,-20.664L-0.138,-20.602L0,-20.602Z" style="fill:white;fill-rule:nonzero;stroke:white;stroke-width:1px;"/>
        </g>
        <g transform="matrix(1,0,0,1,91.9707,236.934)">
            <path d="M0,82.91L-76.929,0L77.13,0.187L0,82.91Z" style="fill:rgb(0,155,114);"/>
        </g>
        <g transform="matrix(1,0,0,1,509.171,276.607)">
            <path d="M0,-82.91L-76.929,0L77.13,-0.187L0,-82.91Z" style="fill:rgb(0,155,114);"/>
        </g>
    </g>
</svg>
