<?xml version="1.0" encoding="UTF-8" standalone="no"?>
<!DOCTYPE svg PUBLIC "-//W3C//DTD SVG 1.1//EN" "http://www.w3.org/Graphics/SVG/1.1/DTD/svg11.dtd">
<svg width="100%" height="100%" viewBox="0 0 601 602" version="1.1" xmlns="http://www.w3.org/2000/svg" xmlns:xlink="http://www.w3.org/1999/xlink" xml:space="preserve" xmlns:serif="http://www.serif.com/" style="fill-rule:evenodd;clip-rule:evenodd;stroke-miterlimit:10;">
    <g id="Слой-1" serif:id="Слой 1" transform="matrix(1,0,0,1,0,46)">
        <g transform="matrix(1,0,0,1,303.151,7.6795)">
            <path d="M0,493.132C-65.86,493.132 -127.778,467.485 -174.349,420.914C-220.918,374.344 -246.566,312.426 -246.566,246.566C-246.566,180.706 -220.918,118.788 -174.349,72.217C-127.778,25.648 -65.86,0 0,0C65.86,0 127.778,25.648 174.349,72.217C220.918,118.788 246.565,180.706 246.565,246.566C246.565,312.426 220.918,374.345 174.349,420.914C127.778,467.485 65.86,493.132 0,493.132" style="fill:rgb(0,155,114);fill-rule:nonzero;"/>
        </g>
        <g transform="matrix(1,0,0,1,303.151,500.937)">
            <path d="M0,-493.382C-136.244,-493.382 -246.691,-382.934 -246.691,-246.691C-246.691,-110.447 -136.244,0 0,0C136.244,0 246.69,-110.447 246.69,-246.691C246.69,-382.934 136.244,-493.382 0,-493.382M0,-493.132C33.27,-493.132 65.544,-486.616 95.926,-473.765C125.271,-461.353 151.627,-443.584 174.26,-420.951C196.893,-398.318 214.662,-371.963 227.074,-342.617C239.925,-312.235 246.44,-279.961 246.44,-246.691C246.44,-213.422 239.925,-181.148 227.074,-150.765C214.662,-121.419 196.893,-95.064 174.26,-72.431C151.627,-49.798 125.271,-32.028 95.926,-19.616C65.544,-6.766 33.27,-0.25 0,-0.25C-33.269,-0.25 -65.543,-6.766 -95.926,-19.616C-125.271,-32.028 -151.627,-49.798 -174.26,-72.431C-196.893,-95.064 -214.662,-121.419 -227.074,-150.765C-239.925,-181.148 -246.441,-213.422 -246.441,-246.691C-246.441,-279.961 -239.925,-312.235 -227.074,-342.617C-214.662,-371.963 -196.893,-398.318 -174.26,-420.951C-151.627,-443.584 -125.271,-461.353 -95.926,-473.765C-65.543,-486.616 -33.269,-493.132 0,-493.132" style="fill:rgb(111,115,210);fill-rule:nonzero;"/>
        </g>
        <g transform="matrix(1,0,0,1,396.941,252.614)">
            <path d="M0,2.772L-151.087,94.452L-149.369,-91.68L0,2.772Z" style="fill:white;"/>
        </g>
        <g transform="matrix(1,0,0,1,131.904,210.721)">
            <path d="M0,20.602C-0.043,19.111 -0.065,17.616 -0.065,16.115C-0.065,-29.744 20.366,-70.827 52.617,-98.541C15.299,-72.046 -9.122,-28.588 -9.428,20.591L-131.576,20.443L-39.996,119.143L51.823,20.665L0.137,20.602L0,20.602Z" style="fill:white;fill-rule:nonzero;stroke:white;stroke-width:1px;"/>
        </g>
        <g transform="matrix(1,0,0,1,469.424,302.733)">
            <path d="M0,-20.602C0.043,-19.111 0.065,-17.616 0.065,-16.115C0.065,29.743 -20.366,70.826 -52.617,98.541C-15.3,72.046 9.121,28.588 9.428,-20.59L131.576,-20.443L39.996,-119.143L-51.823,-20.664L-0.138,-20.602L0,-20.602Z" style="fill:white;fill-rule:nonzero;stroke:white;stroke-width:1px;"/>
        </g>
        <g transform="matrix(1,0,0,1,91.9707,236.934)">
            <path d="M0,82.91L-76.929,0L77.13,0.187L0,82.91Z" style="fill:rgb(0,155,114);"/>
        </g>
        <g transform="matrix(1,0,0,1,509.171,276.607)">
            <path d="M0,-82.91L-76.929,0L77.13,-0.187L0,-82.91Z" style="fill:rgb(0,155,114);"/>
        </g>
    </g>
</svg>
